# This file uses centimeters as units for non-parametric coordinates.

v -0.499319 0.000000 0.000000
v 0.499319 0.000000 0.000000
v -0.471978 1.755888 0.000000
v 0.471978 1.755888 0.000000
v -0.399920 3.511776 0.000000
v 0.399920 3.511776 0.000000
v -0.290954 5.267665 0.000000
v 0.290954 5.267665 0.000000
v -0.180739 7.023553 0.000000
v 0.180739 7.023553 0.000000
v 0.000000 8.779441 -0.000000
vt 0.000000 0.000000
vt 1.000000 0.000000
vt 0.000000 0.200000
vt 1.000000 0.200000
vt 0.000000 0.400000
vt 1.000000 0.400000
vt 0.000000 0.600000
vt 1.000000 0.600000
vt 0.000000 0.800000
vt 1.000000 0.800000
vt 0.500000 1.000000
vn 0.000000 -0.000000 -1.000000
vn 0.000000 -0.000000 -1.000000
vn 0.000000 -0.000000 -1.000000
vn 0.000000 -0.000000 -1.000000
vn 0.000000 -0.000000 -1.000000
vn 0.000000 -0.000000 -1.000000
vn 0.000000 -0.000000 -1.000000
vn 0.000000 -0.000000 -1.000000
vn 0.000000 -0.000000 -1.000000
vn 0.000000 -0.000000 -1.000000
vn 0.000000 -0.000000 -1.000000
s 1
f 1/1/1 3/3/2 4/4/3 2/2/4
f 3/3/2 5/5/5 6/6/6 4/4/3
f 5/5/5 7/7/7 8/8/8 6/6/6
f 7/7/7 9/9/9 10/10/10 8/8/8
f 9/9/9 11/11/11 10/10/10
