# This file uses centimeters as units for non-parametric coordinates.

v -0.499319 0.000000 0.000000
v 0.499319 0.000000 0.000000
v -0.399920 3.051712 0.000000
v 0.399920 3.062053 0.000000
v -0.290954 5.678465 0.000000
v 0.290954 5.685882 0.000000
v 0.000000 8.779441 0.000000
vt 0.000000 -0.000000
vt 1.000000 -0.000000
vt 0.099535 0.400000
vt 0.900465 0.400000
vt 0.208649 0.600000
vt 0.791351 0.600000
vt 0.500000 1.000000
vn 0.000000 0.000000 -1.000000
vn 0.000000 0.000000 -1.000000
vn 0.000000 0.000000 -1.000000
vn 0.000000 0.000000 -1.000000
vn 0.000000 0.000000 -1.000000
vn 0.000000 0.000000 -1.000000
vn 0.000000 0.000000 -1.000000
vn 0.000000 0.000000 -1.000000
vn 0.000000 0.000000 -1.000000
vn 0.000000 0.000000 -1.000000
vn 0.000000 0.000000 -1.000000
s off
g blade_1
f 4/4/1 2/2/2 1/1/3 3/3/4
f 3/3/5 5/5/6 6/6/7 4/4/8
f 7/7/9 6/6/10 5/5/11
